<?xml version="1.0" encoding="UTF-8" standalone="no"?>
<!-- Created with Inkscape (http://www.inkscape.org/) -->

<svg
   xmlns:dc="http://purl.org/dc/elements/1.1/"
   xmlns:cc="http://creativecommons.org/ns#"
   xmlns:rdf="http://www.w3.org/1999/02/22-rdf-syntax-ns#"
   xmlns:svg="http://www.w3.org/2000/svg"
   xmlns="http://www.w3.org/2000/svg"
   xmlns:sodipodi="http://sodipodi.sourceforge.net/DTD/sodipodi-0.dtd"
   xmlns:inkscape="http://www.inkscape.org/namespaces/inkscape"
   width="954.80548"
   height="1238.4834"
   id="svg2"
   version="1.1"
   inkscape:version="0.47 r22583"
   sodipodi:docname="guy_fawkes_color.svg">
  <defs
     id="defs4">
    <inkscape:perspective
       sodipodi:type="inkscape:persp3d"
       inkscape:vp_x="0 : 526.18109 : 1"
       inkscape:vp_y="0 : 1000 : 0"
       inkscape:vp_z="744.09448 : 526.18109 : 1"
       inkscape:persp3d-origin="372.04724 : 350.78739 : 1"
       id="perspective10" />
    <inkscape:perspective
       sodipodi:type="inkscape:persp3d"
       inkscape:vp_x="0 : 0.5 : 1"
       inkscape:vp_y="0 : 1000 : 0"
       inkscape:vp_z="1 : 0.5 : 1"
       inkscape:persp3d-origin="0.5 : 0.33333333 : 1"
       id="perspective2948" />
    <inkscape:perspective
       sodipodi:type="inkscape:persp3d"
       inkscape:vp_x="0 : 0.5 : 1"
       inkscape:vp_y="0 : 1000 : 0"
       inkscape:vp_z="1 : 0.5 : 1"
       inkscape:persp3d-origin="0.5 : 0.33333333 : 1"
       id="perspective2911" />
    <inkscape:perspective
       sodipodi:type="inkscape:persp3d"
       inkscape:vp_x="0 : 0.5 : 1"
       inkscape:vp_y="0 : 1000 : 0"
       inkscape:vp_z="1 : 0.5 : 1"
       inkscape:persp3d-origin="0.5 : 0.33333333 : 1"
       id="perspective2897" />
    <inkscape:perspective
       sodipodi:type="inkscape:persp3d"
       inkscape:vp_x="0 : 526.18109 : 1"
       inkscape:vp_y="0 : 1000 : 0"
       inkscape:vp_z="744.09448 : 526.18109 : 1"
       inkscape:persp3d-origin="372.04724 : 350.78739 : 1"
       id="perspective12" />
    <inkscape:perspective
       sodipodi:type="inkscape:persp3d"
       inkscape:vp_x="0 : 335.76001 : 1"
       inkscape:vp_y="0 : 1000 : 0"
       inkscape:vp_z="753.12 : 335.76001 : 1"
       inkscape:persp3d-origin="376.56 : 223.84001 : 1"
       id="perspective13" />
    <inkscape:perspective
       id="perspective10-3"
       inkscape:persp3d-origin="372.04724 : 350.78739 : 1"
       inkscape:vp_z="744.09448 : 526.18109 : 1"
       inkscape:vp_y="0 : 1000 : 0"
       inkscape:vp_x="0 : 526.18109 : 1"
       sodipodi:type="inkscape:persp3d" />
    <inkscape:perspective
       id="perspective2955"
       inkscape:persp3d-origin="0.5 : 0.33333333 : 1"
       inkscape:vp_z="1 : 0.5 : 1"
       inkscape:vp_y="0 : 1000 : 0"
       inkscape:vp_x="0 : 0.5 : 1"
       sodipodi:type="inkscape:persp3d" />
  </defs>
  <sodipodi:namedview
     id="base"
     pagecolor="#ffffff"
     bordercolor="#666666"
     borderopacity="1.0"
     inkscape:pageopacity="0.0"
     inkscape:pageshadow="2"
     inkscape:zoom="0.44"
     inkscape:cx="83.742802"
     inkscape:cy="271.163"
     inkscape:document-units="px"
     inkscape:current-layer="layer1"
     showgrid="false"
     inkscape:window-width="1280"
     inkscape:window-height="943"
     inkscape:window-x="0"
     inkscape:window-y="25"
     inkscape:window-maximized="1"
     showguides="true"
     inkscape:guide-bbox="true"
     inkscape:snap-to-guides="false"
     inkscape:snap-grids="false">
    <sodipodi:guide
       orientation="1,0"
       position="234.58644,725.46498"
       id="guide5654" />
  </sodipodi:namedview>
  <metadata
     id="metadata7">
    <rdf:RDF>
      <cc:Work
         rdf:about="">
        <dc:format>image/svg+xml</dc:format>
        <dc:type
           rdf:resource="http://purl.org/dc/dcmitype/StillImage" />
        <dc:title></dc:title>
      </cc:Work>
    </rdf:RDF>
  </metadata>
  <g
     inkscape:label="Ebene 1"
     inkscape:groupmode="layer"
     id="layer1"
     transform="translate(-190.41357,-99.34375)">
    <g
       id="g6018"
       transform="matrix(0.97355591,0,0,0.97355591,17.659791,19.002334)">
      <path
         id="path4283"
         d="m 651.1875,111.5625 c 112.24708,0.9125 225.21387,13.80227 333.97487,41.30898 86.13203,35.72107 117.07433,134.85481 133.77533,218.83377 28.7098,173.55494 13.9736,352.96982 -27.2381,523.29851 -20.0907,70.3948 -42.2765,142.25894 -93.40083,197.61344 -70.36755,76.1899 -143.68416,150.6424 -233.45502,204.8516 -37.57093,22.6877 -104.17973,42.2249 -155.0353,28.9115 C 502.37964,1298.2567 433.29502,1190.1408 354.24336,1112.6668 251.29467,1017.6465 226.16734,871.28723 209.98797,738.65901 195.31373,578.21898 197.28467,413.10495 240.67198,256.98645 c 9.48961,-59.73398 55.89256,-92.4261 114.00788,-103.70086 97.84101,-18.98181 196.2918,-41.63513 296.50764,-41.72309 z"
         style="fill:#dee3db" />
      <path
         id="path4641"
         d="m 610.38988,588.06158 c -0.33229,-0.33229 -0.56864,0.25834 -0.52522,1.3125 0.048,1.16495 0.28494,1.4019 0.60416,0.60417 0.28887,-0.72188 0.25335,-1.58438 -0.0789,-1.91667 z"
         style="fill:#dfb4aa" />
      <g
         style="fill:#ffaaaa"
         id="g5982">
        <path
           style="fill:#ffaaaa"
           d="m 967.28571,784.38182 c -15.79466,-3.0832 -29.93878,-10.7762 -41.5,-22.5718 -16.36442,-16.69606 -23.25426,-33.53386 -23.16385,-56.60921 0.13318,-33.98885 21.12341,-62.73039 54.55378,-74.69951 10.69239,-3.82821 29.12746,-4.8904 40.39559,-2.32752 20.89107,4.75157 36.18407,14.48572 48.27617,30.72823 5.9063,7.93354 8.95,14.38226 12.4549,26.38874 3.7036,12.68707 3.7064,29.05911 0.01,41.82231 -2.9184,10.0691 -4.9747,14.4654 -11.1235,23.7807 -9.8396,14.90676 -27.5303,27.42266 -45.2446,32.00936 -9.9751,2.5829 -25.58665,3.249 -34.65573,1.4787 z"
           id="path4635" />
        <path
           style="fill:#ffaaaa"
           d="m 330.78571,778.22732 c -25.75155,-6.8601 -45.55797,-26.00866 -55.17226,-53.33966 -2.53865,-7.2167 -3.65999,-29.67166 -1.89553,-37.9582 4.48575,-21.06669 15.21788,-37.84699 31.82599,-49.76178 13.75597,-9.86864 28.51891,-14.58638 45.7418,-14.61751 14.38928,-0.026 23.27767,1.99542 36.15388,8.22227 9.24408,4.47038 11.53351,6.14509 20.20517,14.77998 8.68947,8.65262 10.35226,10.90895 14.91449,20.23833 6.7758,13.85593 8.26039,20.1353 8.33041,35.23518 0.0433,9.34228 -0.43936,14.17113 -2.02565,20.26483 -4.88748,18.7752 -16.8709,35.7945 -32.7477,46.50956 -6.3756,4.303 -9.68186,5.8864 -19.29126,9.239 -7.56293,2.6386 -10.14013,3.0215 -22.53934,3.349 -12.51665,0.3306 -15.00656,0.1016 -23.5,-2.161 z"
           id="path4633" />
        <path
           style="fill:#ffaaaa"
           d="m 723.34375,962.59375 c -19.84784,0.24859 -39.88732,1.2043 -63.0625,2.96875 -34.1,0 -62,-0.27146 -62,-0.625 l -3.3125,0.15625 -1.28125,1.125 -78.09375,-0.125 -35.03125,-0.0312 3.53125,4.6875 c 7.3963,6.92512 18.8069,13.94012 31.6875,19.53125 40.7386,17.6834 90.5043,26.3074 152,26.2812 32.4118,-0.014 44.28,-0.8048 69,-4.4687 25.9003,-3.8389 38.2736,-6.4411 57.5,-12.1875 20.7117,-6.1905 46.52235,-19.1116 55.34375,-27.6875 l 5.09375,-6 -45.5,0 -82.40625,0 -3.15625,-3.28125 c -0.077,-0.0801 -0.22603,-0.24935 -0.3125,-0.34375 z m -62.0625,93.96875 c -8.9028,0 -16.9778,0.044 -24.4375,0.094 l 48.875,0 c -7.4597,-0.049 -15.5347,-0.094 -24.4375,-0.094 z"
           id="path5669" />
      </g>
      <g
         style="fill:#000000"
         id="g5987">
        <g
           style="fill:#000000"
           id="g4270"
           transform="translate(-2283.638,967.99588)">
          <path
             id="path4012"
             d="m 2938.4122,362.07204 c -12.1415,-12.9324 -14.3911,-18.4932 -20.1681,-49.8527 -1.3679,-7.425 -4.0726,-21.8693 -6.0106,-32.0984 -6.4154,-33.8618 -8.2686,-66.8024 -5.0546,-89.8455 0.8448,-6.057 3.5813,-19.0099 6.0811,-28.7844 3.9203,-15.3285 4.4722,-18.71261 4.0143,-24.61561 -0.8316,-10.7225 -7.208,-22.71132 -20.0279,-37.656097 -3.0667,-3.575 -5.582,-6.8375 -5.5897,-7.25 -0.01,-0.4125 23.8362,-0.75 52.9862,-0.75 29.15,0 53,0.23706 53,0.52679 0,0.28973 -3.2928,4.48305 -7.3173,9.318487 -13.0178,15.64062 -18.6827,27.22122 -18.6827,38.19202 0,3.4215 1.634,12.10781 4.0619,21.59341 2.2341,8.7281 4.9237,21.4943 5.977,28.3693 3.8237,24.9577 1.9055,57.6868 -5.5387,94.5 -0.7785,3.85 -2.1426,11.05 -3.0314,16 -5.5417,30.8645 -7.9736,40.718 -11.9917,48.5872 -2.7318,5.3501 -11.6803,15.959 -14.8449,17.5994 -2.8378,1.471 -2.9199,1.431 -7.8629,-3.8339 z"
             style="fill:#000000" />
          <path
             id="path3902"
             d="m 2881.1429,19.265563 c -35.6766,-2.78657 -49.5,-5.30036 -49.5,-9.00158 0,-1.0447197 1.1857,-2.8321497 2.6349,-3.9720697 2.629,-2.06804 2.874,-2.07258 111.8651,-2.07258 108.9911,0 109.236,0.005 111.8651,2.07258 1.4492,1.13992 2.6349,2.67875 2.6349,3.41963 0,2.7860797 -16.8854,6.5658897 -41,9.1778597 -23.0274,2.49421 -108.4134,2.72612 -138.5,0.37616 z"
             style="fill:#000000" />
          <path
             id="path3896"
             d="m 2708.6429,-5.2508667 c -20.8291,-5.4064003 -31.6054,-11.0770603 -41.8383,-22.0160703 -7.8742,-8.41762 -10.2892,-12.07286 -20.1601,-30.51373 -4.5632,-8.525 -17.9053,-32.91534 -29.6492,-54.200753 -11.7438,-21.28542 -21.3524,-39.2217 -21.3524,-39.85841 0,-0.7261 0.9044,-0.93065 2.4262,-0.54872 4.89,1.22731 21.3545,2.57368 31.6793,2.59055 l 10.6056,0.0173 24.3944,43.05678 c 13.417,23.681223 25.799,44.722493 27.5156,46.758363 5.8788,6.97227 10.0639,8.23277 30.651,9.23184 52.248,2.53556 90.2847,-0.19214 105.3307,-7.55349 8.8984,-4.35357 40.1415,-36.77248 52.2761,-54.243493 1.2415,-1.7875 2.8383,-3.25 3.5484,-3.25 0.71,0 4.6171,1.53675 8.6824,3.41501 27.4966,12.704233 66.8868,12.35714 102.2857,-0.90129 5.1597,-1.93254 9.6371,-3.51372 9.9498,-3.51372 0.3126,0 6.0879,7.3125 12.834,16.25 15.138,20.055433 30.0559,35.424663 37.8208,38.965113 7.4178,3.38219 11.6941,4.30597 31,6.69676 42.1093,5.2147 83.2199,5.65353 92.1561,0.98371 0.9108,-0.47598 17.984,-21.20789 37.9404,-46.07092 19.9564,-24.863033 37.0396,-45.960733 37.9626,-46.883773 1.3895,-1.38948 4.583,-1.77217 18.5596,-2.22403 9.2847,-0.30018 17.8938,-0.86176 19.1313,-1.24795 1.6578,-0.51736 2.25,-0.30013 2.25,0.82535 0,0.84014 -8.3819,14.50512 -18.6264,30.36663 -10.2446,15.86151 -22.9571,35.734673 -28.25,44.162583 -18.1865,28.958 -37.2121,52.74133 -50.1622,62.7062 -3.3742,2.5964503 -9.136,5.6499303 -14.0343,7.4375903 l -8.3099,3.03277 -82.4086,0 -82.4086,0 -3.15,-3.27911 c -1.7325,-1.80351 -5.9414,-7.3160103 -9.3532,-12.2500003 -7.7393,-11.19229 -33.4367,-43.43871 -41.1913,-51.6889 -5.7925,-6.16261 -5.8023,-6.1679 -12.2907,-6.58105 l -6.4936,-0.41348 -6.9524,8.85627 c -3.8239,4.87095 -12.3005,16.22292 -18.8369,25.22659 -14.584,20.08877 -21.5568,28.50318 -29.064,35.0725403 l -5.7791,5.05714 -78.0944,-0.11285 -78.0944,-0.11285 -12.5,-3.2445 z"
             style="fill:#000000" />
          <path
             id="path3870"
             d="m 3014.0447,-126.17586 c -0.8841,-2.30403 1.4192,-9.09163 3.837,-11.30709 5.1323,-4.70288 19.521,-10.29772 26.4835,-10.29772 6.2294,0 8.2777,1.35061 8.2777,5.45826 0,6.10174 -8.9023,12.64778 -21.7157,15.96808 -7.7179,1.99989 -16.1493,2.08903 -16.8825,0.17847 z"
             style="fill:#000000" />
          <path
             id="path3866"
             d="m 2856.8903,-130.32888 c -12.8716,-2.86696 -23.2474,-10.17059 -23.2474,-16.36414 0,-7.52296 10.6198,-7.53521 26.7847,-0.0309 7.6182,3.53663 8.4481,4.2152 10.3144,8.43434 1.1163,2.52355 1.8881,5.58292 1.7152,6.79859 -0.2666,1.87504 -0.9969,2.23643 -4.8143,2.38253 -2.475,0.0947 -7.3137,-0.45447 -10.7526,-1.22043 z"
             style="fill:#000000" />
          <path
             id="path3822"
             d="m 3181.0312,-478.875 c -10.7586,0.0136 -21.8006,0.5324 -29.375,1.59375 -32.2552,4.51976 -62.5898,14.73019 -83.1562,28 -10.3924,6.70537 -21.2847,18.05611 -25.0312,26.0625 -3.094,6.61155 -4.6479,16.02084 -3.4376,20.84375 1.573,6.26735 18.7594,21.14838 32.3126,27.96875 18.0379,9.07718 45.0898,16.26249 70.3124,18.71875 6.3251,0.61595 11.6771,1.31844 11.9063,1.53125 1.0717,0.99522 36.0588,0.20012 48.25,-1.09375 21.9864,-2.33344 45.0525,-8.60865 60.9687,-16.59375 14.7967,-7.42345 21.6517,-9.36015 32.875,-9.28125 17.0348,0.11983 39.1553,7.94929 59.2813,20.96875 3.939,2.5481 6.5205,3.86588 5.75,2.9375 -2.7999,-3.3737 -17.8257,-13.93284 -30.2813,-21.28125 -12.4904,-7.36899 -14.6921,-9.53847 -10.875,-10.75 5.008,-1.58945 20.4252,2.68354 30.9688,8.59375 2.9431,1.64974 5.5476,2.79609 5.8125,2.53125 0.7055,-0.70552 -13.3002,-10.42219 -19.375,-13.4375 -2.8692,-1.42416 -5.4604,-3.21388 -5.75,-3.96875 -0.3046,-0.79377 1.3855,-3.1206 4,-5.5 4.5477,-4.13876 11.3299,-13.65471 15.3125,-21.46875 3.262,-6.4002 2.6103,-6.20556 -2.7188,0.8125 -9.6585,12.72001 -18.871,19.48862 -27.9687,20.5625 -12.7532,1.50537 -22.3295,-5.51338 -47.375,-34.71875 -26.2491,-30.60906 -35.8733,-36.77906 -64.7813,-41.5 -6.3912,-1.04373 -16.8663,-1.54482 -27.625,-1.53125 z m -5.375,9.84375 c 9.2652,-0.009 18.338,0.53546 24.0626,1.625 26.9089,5.12158 48.9463,18.78666 62.875,39.03125 4.3611,6.33861 11.9854,22.42397 12.6874,26.75 0.5584,3.44072 0.3249,3.81642 -4.8437,7.71875 -12.9249,9.75836 -28.8774,14.62002 -61.2813,18.6875 -41.9418,5.26473 -85.9248,3.68887 -113,-4.03125 -13.0601,-3.72391 -25.9387,-10.36668 -32.2812,-16.65625 -6.8572,-6.79998 -5.7139,-8.68909 2.5312,-4.15625 25.2931,13.90496 96.6888,19.40286 145.25,11.1875 27.3949,-4.63454 50,-13.99794 50,-20.6875 0,-3.54416 -8.261,-12.25282 -17.4062,-18.375 -36.2065,-24.23809 -83.604,-32.04919 -123.7812,-20.40625 -15.6372,4.53143 -41.4554,16.99416 -55.5626,26.84375 -3.986,2.78305 -7.4915,4.82103 -7.8124,4.5 -2.1915,-2.1914 11.7505,-16.73383 23.0624,-24.03125 18.977,-12.2421 45.4322,-22.17008 70.2188,-26.34375 6.5395,-1.10113 16.0161,-1.6475 25.2812,-1.65625 z"
             style="fill:#000000" />
          <path
             id="path3816"
             d="m 2707.625,-483.375 c -25.8953,0.16536 -49.4846,4.8227 -61.7188,13.09375 -6.9971,4.73057 -17.3941,15.14662 -31.4062,31.5 -20.1676,23.53731 -27.1281,29.5684 -37.75,32.65625 -4.9972,1.45276 -5.9203,1.44887 -11.4688,-0.0937 -9.1943,-2.55622 -17.8168,-9.82012 -26.5624,-22.375 -3.6103,-5.18321 -3.6714,-2.88044 -0.094,3.53125 4.356,7.80677 10.4624,15.9961 15.25,20.5 2.1694,2.04086 3.6393,4.1705 3.2812,4.75 -0.3582,0.5795 -2.5435,2.02286 -4.8437,3.1875 -4.9646,2.5137 -18.1034,11.45345 -19.75,13.4375 -0.6365,0.7669 2.8441,-0.61121 7.7187,-3.03125 4.8748,-2.42004 11.7275,-5.12845 15.2188,-6.03125 13.4062,-3.46665 20.0932,-0.0679 9.9688,5.0625 -8.1899,4.15007 -20.4898,11.95117 -29.5626,18.75 -9.2002,6.89425 -11.0857,9.43323 -3,4.03125 13.0809,-8.73918 35.9558,-18.24258 49.0938,-20.375 14.8504,-2.41037 23.8623,-0.69545 41.7812,7.875 21.332,10.20285 46.0719,16.38476 71.9688,18.03125 18.4082,1.1704 20.3853,1.19315 37.0625,0.0625 25.6437,-1.73853 52.2593,-7.01019 70,-13.875 20.1675,-7.80389 33.4922,-16.64948 42.9375,-28.4375 3.4901,-4.35565 3.9062,-5.40384 3.9062,-10.5625 0,-29.76246 -40.3409,-57.02627 -100.75,-68.125 -13.5358,-2.48688 -27.717,-3.64911 -41.2812,-3.5625 z m 6.5312,10.25 c 15.3223,0.028 19.866,0.42829 30.6563,2.625 32.5687,6.63043 63.3191,21.03773 79.5313,37.25 5.373,5.3731 7.851,9.46875 5.7187,9.46875 -0.318,0 -4.955,-2.70769 -10.3125,-6 -11.5194,-7.07887 -33.7404,-17.79451 -43.5938,-21.03125 -14.5784,-4.78884 -22.4998,-6.10565 -40,-6.65625 -19.6553,-0.61842 -33.8708,1.25897 -51.0937,6.75 -24.6297,7.85246 -49.0965,22.97816 -54.875,33.9375 -2.9166,5.53154 2.1929,9.95022 18.0625,15.625 18.8746,6.74935 36.1631,9.88512 62.4688,11.3125 40.5293,2.19916 87.6415,-3.22715 109.7187,-12.625 4.5671,-1.94413 8.6171,-3.23383 9,-2.84375 1.0196,1.03874 -8.8841,9.85798 -15.0313,13.375 -11.5381,6.60147 -33.2926,12.2308 -54.25,14.03125 -26.5806,2.28355 -51.0716,2.01749 -73,-0.78125 -24.6567,-3.14697 -31.9085,-4.31692 -40.375,-6.59375 -16.0206,-4.3083 -33.125,-14.13783 -33.125,-19.03125 0,-3.66613 7.43,-19.74152 12.8438,-27.75 10.3594,-15.32421 27.5561,-28.60053 45.0312,-34.78125 14.1389,-5.00072 22.9662,-6.31725 42.625,-6.28125 z"
             style="fill:#000000" />
          <path
             id="path3808"
             d="m 2502.5408,-388.0506 c -6.9428,-4.6381 -8.5367,-13.21545 -3.7143,-19.98794 7.7215,-10.84383 24.8241,-5.07057 24.8127,8.3759 -0.01,11.22753 -11.8879,17.76505 -21.0984,11.61204 z"
             style="fill:#000000" />
          <path
             id="path3806"
             d="m 3380.0613,-386.74952 c -2.7194,-1.10012 -7.2549,-6.53162 -8.0288,-9.6148 -1.7513,-6.97781 3.8158,-15.61385 10.925,-16.94754 5.0434,-0.94616 8.1653,0.0276 12.3328,3.84685 8.981,8.2305 2.8663,23.81905 -9.2654,23.62095 -2.1351,-0.0349 -4.8187,-0.44232 -5.9636,-0.90546 z"
             style="fill:#000000" />
          <path
             id="path3776"
             d="m 2849.1429,-529.80054 c -6.9806,-1.3974 -13.8065,-4.60394 -23.2569,-10.92518 -46.646,-31.20103 -103.327,-56.64325 -144.78,-64.987 -55.0714,-11.08488 -95.076,-2.3986 -125.935,27.34453 -9.2299,8.8961 -8.4523,5.06047 2.3137,-11.41248 7.4881,-11.45759 25.1746,-29.17144 36.377,-36.43341 15.2793,-9.90477 30.7756,-15.86523 49.7812,-19.14774 13.0262,-2.2498 41.6369,-1.49912 58.5,1.53489 37.2743,6.70643 75.6673,22.72322 110.6281,46.15186 19.0461,12.76361 40.3338,31.4025 51.6186,45.19595 5.2016,6.35794 5.7533,7.4856 5.7533,11.76036 0,9.43081 -7.9035,13.53994 -21,10.91822 z"
             style="fill:#000000" />
          <path
             id="path3774"
             d="m 3021.1225,-530.58998 c -4.4241,-2.07682 -6.4796,-5.45169 -6.4796,-10.63866 0,-4.65871 6.2151,-12.63524 20.7849,-26.67549 38.3598,-36.96565 92.5942,-65.35925 143.7151,-75.23991 24.3191,-4.70039 54.1692,-4.82524 72,-0.30115 30.7103,7.79192 55.9158,24.87405 73.909,50.08916 5.6641,7.9376 12.0171,19.48259 11.181,20.31872 -0.3557,0.35569 -3.6715,-2.29127 -7.3684,-5.88214 -11.6166,-11.28344 -19.9692,-16.78654 -34.1703,-22.51316 -22.615,-9.11952 -45.6768,-11.12885 -77.2622,-6.7317 -44.2155,6.15543 -101.3952,30.30335 -155.7891,65.79229 -14.0913,9.19377 -21.2328,12.28532 -30.2721,13.10475 -4.8781,0.44221 -7.0993,0.15552 -10.2483,-1.32271 z"
             style="fill:#000000" />
        </g>
        <path
           id="path5573"
           d="m 654.7742,1330.0679 c -12.1415,-12.9324 -14.3911,-18.4932 -20.1681,-49.8527 -1.3679,-7.425 -4.0726,-21.8693 -6.0106,-32.0984 -6.4154,-33.8618 -8.2686,-66.8024 -5.0546,-89.8455 0.8448,-6.057 3.5813,-19.0099 6.0811,-28.7844 3.9203,-15.3285 4.4722,-18.7126 4.0143,-24.6156 -0.8316,-10.7225 -7.208,-22.7113 -20.0279,-37.6561 -3.0667,-3.575 -5.582,-6.8375 -5.5897,-7.25 -0.01,-0.4125 23.8362,-0.75 52.9862,-0.75 29.15,0 53,0.2371 53,0.5268 0,0.2897 -3.2928,4.4831 -7.3173,9.3185 -13.0178,15.6406 -18.6827,27.2212 -18.6827,38.192 0,3.4215 1.634,12.1078 4.0619,21.5934 2.2341,8.7281 4.9237,21.4943 5.977,28.3693 3.8237,24.9577 1.9055,57.6868 -5.5387,94.5 -0.7785,3.85 -2.1426,11.05 -3.0314,16 -5.5417,30.8645 -7.9736,40.718 -11.9917,48.5872 -2.7318,5.3501 -11.6803,15.959 -14.8449,17.5994 -2.8378,1.471 -2.9199,1.431 -7.8629,-3.8339 z"
           style="fill:#000000" />
        <path
           id="path5575"
           d="m 597.5049,987.26144 c -35.6766,-2.78657 -49.5,-5.30036 -49.5,-9.00158 0,-1.04472 1.1857,-2.83215 2.6349,-3.97207 2.629,-2.06804 2.874,-2.07258 111.8651,-2.07258 108.9911,0 109.236,0.005 111.8651,2.07258 1.4492,1.13992 2.6349,2.67875 2.6349,3.41963 0,2.78608 -16.8854,6.56589 -41,9.17786 -23.0274,2.49421 -108.4134,2.72612 -138.5,0.37616 z"
           style="fill:#000000" />
        <path
           id="path5577"
           d="m 425.0049,962.74501 c -20.8291,-5.4064 -31.6054,-11.07706 -41.8383,-22.01607 -7.8742,-8.41762 -10.2892,-12.07286 -20.1601,-30.51373 -4.5632,-8.525 -17.9053,-32.91534 -29.6492,-54.20075 -11.7438,-21.28542 -21.3524,-39.2217 -21.3524,-39.85841 0,-0.7261 0.9044,-0.93065 2.4262,-0.54872 4.89,1.22731 21.3545,2.57368 31.6793,2.59055 l 10.6056,0.0173 24.3944,43.05678 c 13.417,23.68122 25.799,44.72249 27.5156,46.75836 5.8788,6.97227 10.0639,8.23277 30.651,9.23184 52.248,2.53556 90.2847,-0.19214 105.3307,-7.55349 8.8984,-4.35357 40.1415,-36.77248 52.2761,-54.24349 1.2415,-1.7875 2.8383,-3.25 3.5484,-3.25 0.71,0 4.6171,1.53675 8.6824,3.41501 27.4966,12.70423 66.8868,12.35714 102.2857,-0.90129 5.1597,-1.93254 9.6371,-3.51372 9.9498,-3.51372 0.3126,0 6.0879,7.3125 12.834,16.25 15.138,20.05543 30.0559,35.42466 37.8208,38.96511 7.4178,3.38219 11.6941,4.30597 31,6.69676 42.1093,5.2147 83.2199,5.65353 92.1561,0.98371 0.9108,-0.47598 17.984,-21.20789 37.9404,-46.07092 19.9564,-24.86303 37.0396,-45.96073 37.9626,-46.88377 1.3895,-1.38948 4.583,-1.77217 18.5596,-2.22403 9.2847,-0.30018 17.8938,-0.86176 19.1313,-1.24795 1.6578,-0.51736 2.25,-0.30013 2.25,0.82535 0,0.84014 -8.3819,14.50512 -18.6264,30.36663 -10.2446,15.86151 -22.9571,35.73467 -28.25,44.16258 -18.1865,28.958 -37.2121,52.74133 -50.1622,62.7062 -3.3742,2.59645 -9.136,5.64993 -14.0343,7.43759 l -8.3099,3.03277 -82.4086,0 -82.4086,0 -3.15,-3.27911 c -1.7325,-1.80351 -5.9414,-7.31601 -9.3532,-12.25 -7.7393,-11.19229 -33.4367,-43.43871 -41.1913,-51.6889 -5.7925,-6.16261 -5.8023,-6.1679 -12.2907,-6.58105 l -6.4936,-0.41348 -6.9524,8.85627 c -3.8239,4.87095 -12.3005,16.22292 -18.8369,25.22659 -14.584,20.08877 -21.5568,28.50318 -29.064,35.07254 l -5.7791,5.05714 -78.0944,-0.11285 -78.0944,-0.11285 -12.5,-3.2445 z"
           style="fill:#000000" />
        <path
           id="path5579"
           d="m 730.4067,841.82002 c -0.8841,-2.30403 1.4192,-9.09163 3.837,-11.30709 5.1323,-4.70288 19.521,-10.29772 26.4835,-10.29772 6.2294,0 8.2777,1.35061 8.2777,5.45826 0,6.10174 -8.9023,12.64778 -21.7157,15.96808 -7.7179,1.99989 -16.1493,2.08903 -16.8825,0.17847 z"
           style="fill:#000000" />
        <path
           id="path5581"
           d="m 573.2523,837.667 c -12.8716,-2.86696 -23.2474,-10.17059 -23.2474,-16.36414 0,-7.52296 10.6198,-7.53521 26.7847,-0.0309 7.6182,3.53663 8.4481,4.2152 10.3144,8.43434 1.1163,2.52355 1.8881,5.58292 1.7152,6.79859 -0.2666,1.87504 -0.9969,2.23643 -4.8143,2.38253 -2.475,0.0947 -7.3137,-0.45447 -10.7526,-1.22043 z"
           style="fill:#000000" />
        <path
           id="path5583"
           d="m 897.3932,489.12088 c -10.7586,0.0136 -21.8006,0.5324 -29.375,1.59375 -32.2552,4.51976 -62.5898,14.73019 -83.1562,28 -10.3924,6.70537 -21.2847,18.05611 -25.0312,26.0625 -3.094,6.61155 -4.6479,16.02084 -3.4376,20.84375 1.573,6.26735 18.7594,21.14838 32.3126,27.96875 18.0379,9.07718 45.0898,16.26249 70.3124,18.71875 6.3251,0.61595 11.6771,1.31844 11.9063,1.53125 1.0717,0.99522 36.0588,0.20012 48.25,-1.09375 21.9864,-2.33344 45.0525,-8.60865 60.9687,-16.59375 14.7967,-7.42345 21.6517,-9.36015 32.875,-9.28125 17.0348,0.11983 39.1553,7.94929 59.2813,20.96875 3.939,2.5481 6.5205,3.86588 5.75,2.9375 -2.7999,-3.3737 -17.8257,-13.93284 -30.2813,-21.28125 -12.4904,-7.36899 -14.6921,-9.53847 -10.875,-10.75 5.008,-1.58945 20.4252,2.68354 30.9688,8.59375 2.9431,1.64974 5.5476,2.79609 5.8125,2.53125 0.7055,-0.70552 -13.3002,-10.42219 -19.375,-13.4375 -2.8692,-1.42416 -5.4604,-3.21388 -5.75,-3.96875 -0.3046,-0.79377 1.3855,-3.1206 4,-5.5 4.5477,-4.13876 11.3299,-13.65471 15.3125,-21.46875 3.262,-6.4002 2.6103,-6.20556 -2.7188,0.8125 -9.6585,12.72001 -18.871,19.48862 -27.9687,20.5625 -12.7532,1.50537 -22.3295,-5.51338 -47.375,-34.71875 -26.2491,-30.60906 -35.8733,-36.77906 -64.7813,-41.5 -6.3912,-1.04373 -16.8663,-1.54482 -27.625,-1.53125 z m -5.375,9.84375 c 9.2652,-0.009 18.338,0.53546 24.0626,1.625 26.9089,5.12158 48.9463,18.78666 62.875,39.03125 4.3611,6.33861 11.9854,22.42397 12.6874,26.75 0.5584,3.44072 0.3249,3.81642 -4.8437,7.71875 -12.9249,9.75836 -28.8774,14.62002 -61.2813,18.6875 -41.9418,5.26473 -85.9248,3.68887 -113,-4.03125 -13.0601,-3.72391 -25.9387,-10.36668 -32.2812,-16.65625 -6.8572,-6.79998 -5.7139,-8.68909 2.5312,-4.15625 25.2931,13.90496 96.6888,19.40286 145.25,11.1875 27.3949,-4.63454 50,-13.99794 50,-20.6875 0,-3.54416 -8.261,-12.25282 -17.4062,-18.375 -36.2065,-24.23809 -83.604,-32.04919 -123.7812,-20.40625 -15.6372,4.53143 -41.4554,16.99416 -55.5626,26.84375 -3.986,2.78305 -7.4915,4.82103 -7.8124,4.5 -2.1915,-2.1914 11.7505,-16.73383 23.0624,-24.03125 18.977,-12.2421 45.4322,-22.17008 70.2188,-26.34375 6.5395,-1.10113 16.0161,-1.6475 25.2812,-1.65625 z"
           style="fill:#000000" />
        <path
           id="path5585"
           d="m 423.987,484.62088 c -25.8953,0.16536 -49.4846,4.8227 -61.7188,13.09375 -6.9971,4.73057 -17.3941,15.14662 -31.4062,31.5 -20.1676,23.53731 -27.1281,29.5684 -37.75,32.65625 -4.9972,1.45276 -5.9203,1.44887 -11.4688,-0.0937 -9.1943,-2.55622 -17.8168,-9.82012 -26.5624,-22.375 -3.6103,-5.18321 -3.6714,-2.88044 -0.094,3.53125 4.356,7.80677 10.4624,15.9961 15.25,20.5 2.1694,2.04086 3.6393,4.1705 3.2812,4.75 -0.3582,0.5795 -2.5435,2.02286 -4.8437,3.1875 -4.9646,2.5137 -18.1034,11.45345 -19.75,13.4375 -0.6365,0.7669 2.8441,-0.61121 7.7187,-3.03125 4.8748,-2.42004 11.7275,-5.12845 15.2188,-6.03125 13.4062,-3.46665 20.0932,-0.0679 9.9688,5.0625 -8.1899,4.15007 -20.4898,11.95117 -29.5626,18.75 -9.2002,6.89425 -11.0857,9.43323 -3,4.03125 13.0809,-8.73918 35.9558,-18.24258 49.0938,-20.375 14.8504,-2.41037 23.8623,-0.69545 41.7812,7.875 21.332,10.20285 46.0719,16.38476 71.9688,18.03125 18.4082,1.1704 20.3853,1.19315 37.0625,0.0625 25.6437,-1.73853 52.2593,-7.01019 70,-13.875 20.1675,-7.80389 33.4922,-16.64948 42.9375,-28.4375 3.4901,-4.35565 3.9062,-5.40384 3.9062,-10.5625 0,-29.76246 -40.3409,-57.02627 -100.75,-68.125 -13.5358,-2.48688 -27.717,-3.64911 -41.2812,-3.5625 z m 6.5312,10.25 c 15.3223,0.028 19.866,0.42829 30.6563,2.625 32.5687,6.63043 63.3191,21.03773 79.5313,37.25 5.373,5.3731 7.851,9.46875 5.7187,9.46875 -0.318,0 -4.955,-2.70769 -10.3125,-6 -11.5194,-7.07887 -33.7404,-17.79451 -43.5938,-21.03125 -14.5784,-4.78884 -22.4998,-6.10565 -40,-6.65625 -19.6553,-0.61842 -33.8708,1.25897 -51.0937,6.75 -24.6297,7.85246 -49.0965,22.97816 -54.875,33.9375 -2.9166,5.53154 2.1929,9.95022 18.0625,15.625 18.8746,6.74935 36.1631,9.88512 62.4688,11.3125 40.5293,2.19916 87.6415,-3.22715 109.7187,-12.625 4.5671,-1.94413 8.6171,-3.23383 9,-2.84375 1.0196,1.03874 -8.8841,9.85798 -15.0313,13.375 -11.5381,6.60147 -33.2926,12.2308 -54.25,14.03125 -26.5806,2.28355 -51.0716,2.01749 -73,-0.78125 -24.6567,-3.14697 -31.9085,-4.31692 -40.375,-6.59375 -16.0206,-4.3083 -33.125,-14.13783 -33.125,-19.03125 0,-3.66613 7.43,-19.74152 12.8438,-27.75 10.3594,-15.32421 27.5561,-28.60053 45.0312,-34.78125 14.1389,-5.00072 22.9662,-6.31725 42.625,-6.28125 z"
           style="fill:#000000" />
        <path
           id="path5587"
           d="m 218.9028,579.94528 c -6.9428,-4.6381 -8.5367,-13.21545 -3.7143,-19.98794 7.7215,-10.84383 24.8241,-5.07057 24.8127,8.3759 -0.01,11.22753 -11.8879,17.76505 -21.0984,11.61204 z"
           style="fill:#000000" />
        <path
           id="path5589"
           d="m 1096.4233,581.24636 c -2.7194,-1.10012 -7.2549,-6.53162 -8.0288,-9.6148 -1.7513,-6.97781 3.8158,-15.61385 10.925,-16.94754 5.0434,-0.94616 8.1653,0.0276 12.3328,3.84685 8.981,8.2305 2.8663,23.81905 -9.2654,23.62095 -2.1351,-0.0349 -4.8187,-0.44232 -5.9636,-0.90546 z"
           style="fill:#000000" />
        <path
           id="path5591"
           d="m 565.5049,438.19534 c -6.9806,-1.3974 -13.8065,-4.60394 -23.2569,-10.92518 -46.646,-31.20103 -103.327,-56.64325 -144.78,-64.987 -55.0714,-11.08488 -95.076,-2.3986 -125.935,27.34453 -9.2299,8.8961 -8.4523,5.06047 2.3137,-11.41248 7.4881,-11.45759 25.1746,-29.17144 36.377,-36.43341 15.2793,-9.90477 30.7756,-15.86523 49.7812,-19.14774 13.0262,-2.2498 41.6369,-1.49912 58.5,1.53489 37.2743,6.70643 75.6673,22.72322 110.6281,46.15186 19.0461,12.76361 40.3338,31.4025 51.6186,45.19595 5.2016,6.35794 5.7533,7.4856 5.7533,11.76036 0,9.43081 -7.9035,13.53994 -21,10.91822 z"
           style="fill:#000000" />
      </g>
      <g
         id="g6011">
        <path
           style="fill:#a5a075"
           d="m 927.34375,286.71875 c -12.6765,0.004 -27.45573,1.18523 -37.1875,3.25 -15.7828,3.3487 -35.04585,9.60205 -49.96875,16.21875 -11.9103,5.2809 -31.73475,15.5108 -38.53125,19.875 -13.2611,8.5152 -21.04725,13.89025 -20.65625,14.28125 0.2507,0.2507 3.67435,-0.7112 7.59375,-2.125 16.037,-5.7848 51.3999,-13.3068 77.8125,-16.5625 4.5375,-0.5593 11.7375,-1.43805 16,-1.96875 13.95209,-1.73689 48.97064,-2.44226 53.96875,1.59375 11.80264,0.0895 22.78529,1.16527 31.125,3.28125 30.7103,7.79192 55.913,24.84739 73.9062,50.0625 5.6641,7.9376 12.0236,19.50762 11.1876,20.34375 -0.3558,0.35569 -3.6781,-2.31538 -7.375,-5.90625 -11.6167,-11.28344 -19.9552,-16.77338 -34.1563,-22.5 -22.615,-9.11952 -45.69585,-11.1159 -77.28125,-6.71875 C 889.56575,365.99918 832.3939,390.13606 778,425.625 c -4.57171,2.98278 -8.40169,5.29604 -11.8125,7.125 -1.15022,2.87541 -4.62093,10.32572 -7.03125,15.71875 -2.9964,6.7045 -6.7949,15.9 -8.4375,20.4375 -1.6426,4.5376 -4.13015,11.3163 -5.53125,15.0625 -2.5235,6.747 -12.53125,43.0314 -12.53125,45.4375 -0.002,2.5309 1.64275,0.86925 8.65625,-8.59375 17.3738,-23.442 44.9097,-52.9537 67.625,-72.5 37.429,-32.2073 79.32265,-53.71345 122.71875,-63.03125 10.7962,-2.3181 32.00095,-4.638 42.46875,-4.625 25.9905,0.0309 64.9382,7.58895 75.5,14.65625 6.5202,4.3629 6.579,2.85445 0.4375,-10.34375 -14.292,-30.7138 -21.2033,-42.58555 -32.4063,-55.78125 -20.00625,-23.5649 -46.12275,-38.11425 -74.99995,-41.71875 -4.21788,-0.52647 -9.55045,-0.75191 -15.3125,-0.75 z"
           id="path5274" />
        <path
           style="fill:#a5a075"
           d="m 393.59375,286.75 c -11.40857,0.10404 -23.35175,1.11562 -30.625,2.78125 -29.6071,6.7804 -52.2026,22.7921 -72.8125,51.625 -3.5383,4.95 -8.199,12.6 -10.375,17 -10.0214,20.2629 -18.32615,38.6426 -17.71875,39.25 0.367,0.367 1.6625,0.0207 2.875,-0.75 8.1557,-5.184 25.81285,-10.3715 46.21875,-13.625 19.4593,-3.1025 55.2946,-2.0398 75,2.25 47.8747,10.422 94.36205,36.31545 136.40625,75.96875 18.1719,17.1385 43.6408,46.04835 57,64.65625 3.0377,4.2308 5.09375,5.8746 5.09375,4.125 0,-1.3759 -8.0787,-31.4316 -10.3125,-38.375 -3.9618,-12.3149 -12.61265,-34.8235 -17.40625,-45.3125 -1.59605,-3.49244 -4.54691,-9.7646 -6.4375,-14 -2.55711,-1.41954 -5.25386,-3.05842 -8.25,-5.0625 -46.646,-31.20103 -103.32825,-56.65625 -144.78125,-65 -55.0714,-11.08488 -95.0785,-2.39938 -125.9375,27.34375 -9.2299,8.8961 -8.4535,5.0667 2.3125,-11.40625 7.4881,-11.45759 25.1726,-29.17553 36.375,-36.4375 15.2793,-9.90477 30.77565,-15.87374 49.78125,-19.15625 4.02204,-0.69466 9.52975,-1.10634 15.71875,-1.25 2.8036,-1.25162 7.01646,-2.96925 9.4375,-3.71875 2.35627,-0.72945 3.6199,-1 7.3125,-1 7.919,0 39.93485,2.50785 49.78125,3.90625 3.7825,0.5371 13.65625,1.9462 21.90625,3.125 19.1678,2.7387 48.1464,9.15955 61,13.53125 5.5,1.8707 10.3835,3.40625 10.875,3.40625 0.4916,0.004 -1.0834,-1.4466 -3.5,-3.25 -15.4586,-11.536 -49.5201,-29.5164 -70.375,-37.125 -16.498,-6.0191 -36.7052,-11.171 -49.75,-12.6875 -5.319,-0.61838 -11.96736,-0.87493 -18.8125,-0.8125 z"
           id="path5276" />
        <path
           style="fill:#a5a075"
           d="m 488,752.65625 c -0.8602,0 -3.21455,1.2908 -5.21875,2.875 -10.9807,8.6797 -37.7009,23.43585 -54.625,30.15625 -22.907,9.0962 -36.5539,13.071 -57,16.5625 -18.4159,3.1447 -32.2187,3.86805 -47.5,2.53125 -27.9396,-2.4442 -48.1041,-11.1617 -64.75,-28 -5.7263,-5.7924 -8.251,-7.7891 -8.25,-6.5 0.002,2.1322 7.07695,27.55485 12.53125,45.03125 5.7819,18.5265 11.7107,33.69315 18.9375,48.34375 3.6626,7.425 8.09715,16.425 9.84375,20 3.6309,7.432 16.571,31.3498 22.1875,41 13.4342,23.0825 40.62955,63.0346 64.34375,94.49995 22.7628,30.2034 61.67005,76.9619 76.96875,92.5 l 8.375,8.5 -7.78125,-11.5 c -4.2828,-6.3246 -9.64745,-14.1996 -11.90625,-17.5 -15.7029,-22.942 -38.5962,-59.8225 -58.6875,-94.49995 -11.311,-19.5227 -12.8125,-22.41825 -12.8125,-24.46875 0,-2.6633 1.5738,-1.76065 11.1875,6.21875 19.116,15.8664 33.974,25.73005 52.1875,34.68755 9.7216,4.7811 31.4203,13.0801 32.1875,12.3124 0.1511,-0.1507 -3.63595,-2.0661 -8.40625,-4.25 -19.0403,-8.7163 -42.59655,-23.42825 -57.65625,-35.99995 C 388.92765,974.11315 369.5401,955.4173 360.25,944.75 c -8.1977,-9.4129 -9.59535,-11.7242 -22.46875,-37.3125 -7.5511,-15.0092 -18.17325,-36.95625 -23.59375,-48.78125 -5.4205,-11.825 -12.4728,-27.2071 -15.6875,-34.1875 -8.0422,-17.4623 -7.95895,-18.03475 2.71875,-14.34375 l 6.9375,2.375 0.0312,0.0312 c 3.91038,0.73419 8.0696,1.47529 13.03125,2.21875 11.54852,1.73038 16.31211,1.88716 32.53125,1.3125 2.5084,-0.0889 4.48259,-0.1604 6.46875,-0.25 0.5407,-0.0914 1.11319,-0.15625 1.71875,-0.15625 5.4846,-0.0124 31.67025,-3.8332 44.21875,-6.4375 52.0038,-10.7929 91.5,-30.3732 91.5,-45.375 0,-2.7942 -0.8399,-4.27825 -4.0625,-7.34375 -2.2231,-2.1149 -4.73355,-3.84375 -5.59375,-3.84375 z m 349.6875,1.75 c -0.60207,0.0407 -1.17294,0.28959 -1.9375,0.6875 -8.0212,4.1742 -9.8119,11.6003 -4.4375,18.375 3.9469,4.9753 17.75585,14.01295 29.15625,19.09375 24.02576,10.70738 60.2895,19.78047 95.34375,23.9375 0.0297,0.003 0.064,-0.003 0.0937,0 4.51701,0.41485 9.38358,0.75244 15.25,1.03125 11.66428,0.55429 16.42219,0.24228 32.5,-1.96875 6.5593,-0.90203 11.0925,-1.57077 14.75,-2.28125 l 0,0.0937 c 1.7933,-0.53579 3.7759,-1.11139 6.5,-1.96875 4.7052,-1.4805 7.0852,-1.82095 7.8126,-1.09375 0.9963,0.9967 -0.3869,4.32675 -17.5313,41.84375 -6.6691,14.5941 -7.735,16.8166 -21.12505,44 -12.1665,24.6995 -14.11605,27.9799 -22.59375,38.5 -10.4302,12.943 -32.78895,35.6122 -46.53125,47.1875 -16.32,13.7464 -33.11345,24.9958 -52.78125,35.2813 -6.05,3.1639 -11.18495,5.9169 -11.40625,6.125 -0.2214,0.208 3.3786,-1.0129 8,-2.6875 25.0282,-9.0695 52.24685,-26.22205 76.65625,-48.31255 7.8279,-7.0842 12.01655,-10.17095 12.78125,-9.40625 0.6788,0.6788 -2.329,8.8911 -3.9375,10.75 -0.7376,0.8523 -4.704,7.6375 -8.8125,15.0625 -4.1084,7.425 -9.86225,17.5499 -12.78125,22.5 -2.919,4.9502 -7.40225,12.6005 -9.96875,17 -2.5665,4.4004 -7.3987,12.2754 -10.75,17.5 -20.7158,32.2976 -28.9321,44.7392 -38.125,57.8126 -5.6796,8.0766 -10.76065,15.4561 -11.28125,16.4062 -3.0528,5.571 7.9966,-5.8794 26.125,-27.125 28.0703,-32.897 46.7012,-56.1881 67.3125,-84.0939 5.4842,-7.425 11.1321,-15.077 12.5625,-16.9999 6.0582,-8.1437 24.43005,-35.73885 34.4688,-51.78125 10.8678,-17.3674 25.9523,-44.56555 32.8438,-59.21875 3.2326,-6.875 7.868,-16.325 10.2812,-21 6.634,-12.8515 14.8322,-36.3232 23.9688,-68.5 6.3557,-22.3857 6.3147,-22.6605 -3.1876,-13.125 -13.2663,13.3137 -25.3018,19.9797 -45.75,25.3125 -8.5842,2.2387 -12.6944,2.6703 -29,3.0625 -16.2246,0.3902 -20.9719,0.14285 -32.5,-1.71875 -17.9752,-2.9028 -26.9522,-5.0954 -42.5,-10.375 -28.5842,-9.7065 -53.19305,-21.93845 -72.90625,-36.28125 -3.79094,-2.75818 -5.23795,-3.71461 -6.5625,-3.625 z"
           id="path5296" />
      </g>
      <path
         id="path5760"
         d="m 661.3125,99.34375 c -76.9352,2.72558 -150.13866,9.59488 -225.4375,25.71875 -41.25475,8.83394 -74.92915,16.67599 -115.46875,26.625 -50.16168,12.31042 -77.14856,58.68961 -91.65625,100.03125 -14.53309,54.77984 -24.43664,107.38619 -30.90625,164.75 -1.176,44.30658 -9.5855,90.71418 -6.90625,137 -1.26478,96.66168 4.25347,192.11755 21.125,287.09375 7.56859,28.40361 12.92557,62.44374 22.84375,92.21875 11.41548,35.08523 26.60113,76.95615 47.75,110.53125 18.3627,29.1518 47.82346,58.2386 72.3125,84.75 17.25607,18.6811 46.96075,49.7962 60.15625,63.9375 48.62605,52.1114 101.28529,108.1978 167.0625,135.2188 38.89235,15.9767 98.17671,13.0123 144.5625,-2.9063 42.10824,-14.4506 78.37329,-42.2937 114.25,-69.2813 31.3875,-23.6106 74.68966,-63.9212 105.59375,-94.375 86.44285,-77.2524 138.98775,-163.751 164.18745,-302.12495 17.586,-96.56596 34.5096,-196.61223 34.4376,-278.84375 -0.076,-86.731 -1.0487,-175.52624 -26.875,-261.96875 -9.5761,-32.05146 -22.4619,-65.67261 -38.3126,-95.9375 C 1051.7151,170.54096 999.23616,133.91417 940.5,129.125 896.74743,122.51597 860.43413,115.69492 815.125,109.6875 763.96354,104.11553 712.32479,101.73853 661.3125,99.34375 z m -10.125,12.21875 c 112.24708,0.9125 225.20775,13.80579 333.96875,41.3125 86.13205,35.72107 117.08025,134.86479 133.78125,218.84375 28.7098,173.55494 13.9617,352.95256 -27.25,523.28125 -20.0907,70.3948 -42.2507,142.2705 -93.375,197.625 -70.36755,76.1899 -143.69789,150.6345 -233.46875,204.8438 -37.57093,22.6876 -104.17568,42.2196 -155.03125,28.9062 C 502.38369,1298.2514 433.30166,1190.1302 354.25,1112.6562 251.30131,1017.6359 226.17937,871.28447 210,738.65625 195.32576,578.21622 197.30019,413.1185 240.6875,257 c 9.48961,-59.73398 55.88468,-92.44399 114,-103.71875 97.84101,-18.98181 196.28416,-41.63079 296.5,-41.71875 z m 63.46875,400.09375 c -0.48255,0.0316 -1.03123,1.36198 -1.6875,3.875 -5.1321,19.652 -8.2742,100.5174 -6.1875,159.25 1.626,45.7655 3.04925,63.02575 7.65625,91.78125 5.7479,35.8764 2.2521,47.96035 -15.8125,54.65625 -14.3337,5.313 -25.8194,7.9562 -36.25,8.3125 -9.219,0.315 -11.14035,0.008 -24.28125,-3.71875 -7.8398,-2.2236 -16.2398,-4.9745 -18.6875,-6.125 -5.6774,-2.6687 -12.09055,-9.5991 -13.46875,-14.5625 -1.8114,-6.5235 -1.2482,-22.51755 1.375,-38.65625 4.3513,-26.771 5.95015,-44.7282 7.53125,-85.1875 1.8037,-46.1517 0.80885,-100.4223 -2.53125,-138 -2.1608,-24.3095 -3.9092,-33.37205 -6.0625,-31.21875 -0.404,0.404 -1.085,10.51375 -1.5,22.46875 -1.4903,42.9314 -8.3537,80.7091 -20.5,112.75 -8.8125,23.2466 -24.3006,49.8024 -42.875,73.5 -4.4,5.6136 -10.7966,13.76165 -14.1875,18.09375 -21.5777,27.5667 -24.2854,45.3611 -10.8125,70.6875 4.899,9.2091 11.1046,18.21875 12.5625,18.21875 1.2737,0 1.28145,-0.0541 -2.03125,-7.4375 -12.7777,-28.4791 -9.5187,-45.61195 13.0625,-68.59375 14.0355,-14.2844 40.9061,-39.436 42.9375,-40.1875 5.2002,-1.9236 6.05635,4.70825 3.40625,26.21875 -4.8922,39.7093 -4.6162,57.2953 1.1875,73.625 3.2242,9.0718 8.88945,15.60625 19.65625,22.71875 12.4573,8.229 23.55425,12.51585 38.71875,14.96875 6.17,0.998 24.1782,0.54385 31,-0.78125 11.6874,-2.2701 17.6335,-4.28495 29.5,-10.03125 17.5351,-8.4914 24.22515,-15.7157 29.65625,-32 2.1624,-6.4836 2.32,-8.5489 2.25,-28 -0.056,-15.642 -0.6302,-25.0823 -2.25,-37 -2.6277,-19.3333 -2.77265,-26.7586 -0.59375,-28.9375 0.8643,-0.8643 1.9845,-1.5625 2.5,-1.5625 1.5095,0 21.8737,18.89195 40.3125,37.40625 18.2443,18.3191 23.865,28.3777 23.875,42.6875 0.003,9.6764 -1.5541,16.16565 -6.5,27.21875 -6.428,14.3651 -2.64045,12.3556 7.15625,-3.8125 9.4966,-15.6727 12.70345,-29.9038 9.65625,-42.875 -2.8417,-12.0961 -6.09225,-17.2387 -32.53125,-51.25 -18.7689,-24.1443 -31.8027,-46.195 -41.0625,-69.4375 -12.7263,-31.9436 -20.08885,-70.056 -21.53125,-111.4375 -0.67102,-19.25287 -1.42307,-27.70571 -2.65625,-27.625 z"
         style="fill:#ccccb1" />
    </g>
  </g>
</svg>
